# xmcd
# Copyright (C) 1995-1998 Ti Kan
#
# Track frame offsets:
#       150
#       15852
#       28343
#       43518
#       56207
#       71294
#       94286
#       105737
#       118385
#       134779
#       154033
#       174200
#       181347
#       192118
#       201406
#       214595
#       234952
#       245676
#       260787
#       271031
#
# Disc length: 3999 seconds
#
# Revision: 0
# Processed by: cddbd v1.5.2PL0 Copyright (c) Steve Scherf et al.
# Submitted via: CD-Transfer v1.0
#
DISCID=220f9d14
DTITLE=Nomads, The - 
DYEAR=1900
DGENRE=
TTITLE0=16 Forever
TTITLE1=Bangkok
TTITLE2=Beyond The Valley Of The Dolls
TTITLE3=Call Of Your Dog
TTITLE4=Don't Treadon Me
TTITLE5=Fire And Brimstone
TTITLE6=I'm A Five Years Ahead Of My Time
TTITLE7=Knowledge Comes With A Death's Release
TTITLE8=Low Down Shakin' Chills
TTITLE9=Milkcow Blues
TTITLE10=My Deadly Game
TTITLE11=Rat Fink A Boo-Boo
TTITLE12=Real Gone Lover
TTITLE13=She Pays The Rent
TTITLE14=Surfin' In The Bars
TTITLE15=Swamp Gal
TTITLE16=Temptation Pays Double
TTITLE17=Way, The (You Touch My Hand)
TTITLE18=Where The Wolf Bane Blooms
TTITLE19=Wimp
EXTD=
EXTT0=
EXTT1=
EXTT2=
EXTT3=
EXTT4=
EXTT5=
EXTT6=
EXTT7=
EXTT8=
EXTT9=
EXTT10=
EXTT11=
EXTT12=
EXTT13=
EXTT14=
EXTT15=
EXTT16=
EXTT17=
EXTT18=
EXTT19=
PLAYORDER=
